<?xml version="1.0" encoding="UTF-8" standalone="no"?>
<svg
   width="16"
   height="16"
   version="1.1"
   id="svg2"
   sodipodi:docname="slide_horizontal_grey_section.svg"
   xml:space="preserve"
   xmlns:inkscape="http://www.inkscape.org/namespaces/inkscape"
   xmlns:sodipodi="http://sodipodi.sourceforge.net/DTD/sodipodi-0.dtd"
   xmlns="http://www.w3.org/2000/svg"
   xmlns:svg="http://www.w3.org/2000/svg"><sodipodi:namedview
     id="namedview2"
     pagecolor="#505050"
     bordercolor="#ffffff"
     borderopacity="1"
     inkscape:showpageshadow="0"
     inkscape:pageopacity="0"
     inkscape:pagecheckerboard="1"
     inkscape:deskcolor="#505050"><inkscape:page
       x="0"
       y="0"
       width="16"
       height="16"
       id="page2"
       margin="0"
       bleed="0" /></sodipodi:namedview><defs
     id="defs1" /><g
     id="g3"
     transform="matrix(0.49577394,0,0,0.49577394,0.08033308,0.07457696)"><path
       stroke="none"
       fill="#36bdf7"
       d="M 16,4 Q 11,4 7.5,7.5 4,11 4,16 4,21 7.5,24.45 V 24.5 Q 11,28 16,28 q 4.95,0 8.45,-3.5 L 24.5,24.45 Q 28,20.95 28,16 28,11 24.5,7.5 H 24.45 Q 21,4 16,4 m 0,-2 q 5.8,0 9.9,4.1 4.1,4.1 4.1,9.9 0,5.8 -4.1,9.9 Q 21.8,30 16,30 10.2,30 6.1,25.9 2,21.8 2,16 2,10.2 6.05,6.1 L 6.1,6.05 Q 10.2,2 16,2"
       id="path1-6" /><path
       stroke="none"
       fill="#1c9fd7"
       d="m 16,4 q 5,0 8.45,3.5 H 24.5 Q 28,11 28,16 q 0,4.95 -3.5,8.45 L 24.45,24.5 Q 20.95,28 16,28 11,28 7.5,24.5 V 24.45 Q 4,21 4,16 4,11 7.5,7.5 11,4 16,4"
       id="path2-2" /><path
       stroke="none"
       fill="#167da8"
       d="M 16,2 Q 10.2,2 6.1,6.05 L 6.05,6.1 Q 2,10.2 2,16 2,21.8 6.1,25.9 10.2,30 16,30 21.8,30 25.9,25.9 30,21.8 30,16 30,10.2 25.9,6.1 21.8,2 16,2 M 32,16 Q 32,22.65 27.3,27.3 22.65,32 16,32 9.35,32 4.65,27.3 0,22.65 0,16 0,9.35 4.65,4.65 9.35,0 16,0 22.65,0 27.3,4.65 32,9.35 32,16"
       id="path3" /></g></svg>
