<?xml version="1.0" encoding="UTF-8" standalone="no"?>
<svg
   width="32"
   height="32"
   version="1.1"
   id="svg1"
   sodipodi:docname="icon_arrow_right.svg"
   inkscape:export-filename="icon_cross.svg"
   inkscape:export-xdpi="72"
   inkscape:export-ydpi="72"
   xml:space="preserve"
   xmlns:inkscape="http://www.inkscape.org/namespaces/inkscape"
   xmlns:sodipodi="http://sodipodi.sourceforge.net/DTD/sodipodi-0.dtd"
   xmlns="http://www.w3.org/2000/svg"
   xmlns:svg="http://www.w3.org/2000/svg"><sodipodi:namedview
     id="namedview1"
     pagecolor="#505050"
     bordercolor="#ffffff"
     borderopacity="1"
     inkscape:showpageshadow="0"
     inkscape:pageopacity="0"
     inkscape:pagecheckerboard="1"
     inkscape:deskcolor="#505050"><inkscape:page
       x="0"
       y="0"
       width="32"
       height="32"
       id="page2"
       margin="0"
       bleed="0" /></sodipodi:namedview><defs
     id="defs1" /><g
     id="g2"
     transform="matrix(1.1209951,0,0,1.1209951,4.7187054,6.1523163)"><path
       stroke="none"
       fill="#ffffff"
       d="M 2.45,10.5 Q 1.95,9.85 2.05,9.05 2.1,8.2 2.75,7.7 3.4,7.2 4.25,7.3 5.05,7.35 5.55,8 l 2.3,2.85 6.6,-8.1 Q 15,2.1 15.8,2 16.6,1.9 17.25,2.45 17.9,3 18,3.8 18.1,4.6 17.55,5.25 l -8.15,10 -0.95,0.7 H 7.3 l -1,-0.7 -3.85,-4.75"
       id="path1-6" /><path
       stroke="none"
       fill="#666880"
       d="m 2.45,10.5 3.85,4.75 1,0.7 h 1.15 l 0.95,-0.7 8.15,-10 Q 18.1,4.6 18,3.8 17.9,3 17.25,2.45 16.6,1.9 15.8,2 15,2.1 14.45,2.75 L 7.85,10.85 5.55,8 Q 5.05,7.35 4.25,7.3 3.4,7.2 2.75,7.7 2.1,8.2 2.05,9.05 1.95,9.85 2.45,10.5 M 20,3.6 q 0.15,1.65 -0.9,2.95 l -8.15,10 V 16.5 q -0.75,0.95 -1.9,1.35 -1.2,0.35 -2.35,0 H 6.65 Q 5.5,17.45 4.75,16.5 L 0.9,11.75 Q -0.15,10.45 0.05,8.85 0.2,7.2 1.5,6.15 2.8,5.1 4.45,5.3 6.05,5.45 7.1,6.75 L 7.85,7.7 12.9,1.5 Q 13.95,0.2 15.6,0.05 V 0 q 1.6,-0.15 2.9,0.9 l 0.05,0.05 q 1.25,1 1.45,2.65"
       id="path2" /></g></svg>
